#tb 0: 2/25
#media_type 0: video
#codec_id 0: rawvideo
#dimensions 0: 320x200
#sar 0: 0/1
0,          0,          0,        1,   192000, 0x00000000
0,          2,          2,        1,   192000, 0x331b1c12
0,          3,          3,        1,   192000, 0xc2fa2d89
0,          4,          4,        1,   192000, 0x9b3035ac
0,          5,          5,        1,   192000, 0xb8e331eb
0,          6,          6,        1,   192000, 0xd35b2053
0,          7,          7,        1,   192000, 0x01062188
